<svg width="256" height="256" viewBox="0 0 256 256" fill="none" xmlns="http://www.w3.org/2000/svg">
<path d="M35.6785 230.41L15.136 0H240.864L220.299 230.373L127.862 256L35.6785 230.41Z" fill="#264DE4"/>
<path d="M202.694 215.704L220.268 18.839H128V236.412L202.694 215.704Z" fill="#2965F1"/>
<path d="M62.2299 104.295L64.7624 132.554H128V104.295H62.2299ZM59.7094 75.3575H128V47.0985H57.1404L59.7094 75.3575ZM128 177.686L127.876 177.719L96.4039 169.221L94.3924 146.683H66.0244L69.9839 191.054L127.87 207.124L128 207.087V177.686Z" fill="#EBEBEB"/>
<path d="M127.903 104.295V132.554H162.7L159.42 169.203L127.903 177.71V207.11L185.835 191.054L186.26 186.279L192.9 111.883L193.59 104.295L198.691 47.0985H127.903V75.3575H167.722L165.15 104.295H127.903Z" fill="white"/>
</svg>
