<svg width="256" height="256" viewBox="0 0 256 256" fill="none" xmlns="http://www.w3.org/2000/svg">
<path d="M52.1966 203.773L8.42365 159.991C3.23408 154.649 0 147.127 0 139.773C0 136.369 1.91789 131.047 3.3657 127.981L43.7729 43.7825L52.1966 203.773Z" fill="#01579B"/>
<path d="M202.055 52.2081L158.282 8.42551C154.465 4.58889 146.493 0 139.761 0C133.97 0 128.292 1.16603 124.606 3.36644L43.7917 43.7825L202.055 52.2081Z" fill="#40C4FF"/>
<path d="M104.393 255.981H210.478V210.506L131.337 185.248L58.9467 210.506L104.393 255.981Z" fill="#40C4FF"/>
<path d="M43.7917 180.208C43.7917 193.711 45.484 197.04 52.2154 203.792L58.9468 210.525H210.479L136.395 126.326L43.7917 43.8013V180.208Z" fill="#29B6F6"/>
<path d="M178.476 43.7825H43.7729L210.46 210.506H255.925V106.09L202.055 52.208C194.496 44.61 187.765 43.7825 178.476 43.7825Z" fill="#01579B"/>
<path opacity="0.2" d="M53.8889 205.466C47.1575 198.695 45.4652 192.038 45.4652 180.208V45.4752L43.7729 43.7825V180.189C43.7918 192.038 43.7918 195.31 53.8889 205.466L58.9468 210.525L53.8889 205.466Z" fill="white"/>
<path opacity="0.2" d="M254.251 104.416V208.832H208.786L210.479 210.506H255.944V106.109L254.251 104.416Z" fill="#263238"/>
<path opacity="0.2" d="M202.055 52.208C193.706 43.8578 186.862 43.7825 176.803 43.7825H43.7917L45.484 45.4752H176.822C181.823 45.4752 194.515 44.6288 202.055 52.208Z" fill="white"/>
<path opacity="0.2" d="M254.251 104.416L202.055 52.208L158.282 8.42551C154.465 4.58889 146.493 0 139.761 0C133.97 0 128.291 1.16603 124.606 3.36644L43.7917 43.7825L3.3845 127.981C1.93668 131.047 0.0187988 136.369 0.0187988 139.773C0.0187988 147.127 3.25288 154.649 8.44245 159.991L48.7932 200.049C49.7522 201.234 50.8804 202.438 52.2342 203.773L53.9264 205.466L58.9844 210.525L102.757 254.307L104.45 256H208.843H210.535V210.525H256V210.412V106.109L254.251 104.416Z" fill="url(#paint0_radial_2_18)"/>
<defs>
<radialGradient id="paint0_radial_2_18" cx="0" cy="0" r="1" gradientUnits="userSpaceOnUse" gradientTransform="translate(128 127.993) scale(127.981 128.009)">
<stop stop-color="white" stop-opacity="0.1"/>
<stop offset="1" stop-color="white" stop-opacity="0"/>
</radialGradient>
</defs>
</svg>
