<svg width="50" height="50" viewBox="0 0 50 50" fill="none" xmlns="http://www.w3.org/2000/svg">
<path d="M42.3548 9.2111C39.1182 7.71099 35.6575 6.62078 32.0394 6C31.595 6.79582 31.0759 7.86621 30.718 8.7177C26.8719 8.14472 23.0611 8.14472 19.2857 8.7177C18.9279 7.86621 18.397 6.79582 17.9487 6C14.3267 6.62078 10.862 7.715 7.6254 9.21904C1.09717 18.9915 -0.672523 28.5212 0.212326 37.9155C4.54219 41.1186 8.73835 43.0644 12.8637 44.3377C13.8823 42.949 14.7907 41.4728 15.5733 39.917C14.0828 39.356 12.6553 38.6636 11.3064 37.8599C11.6643 37.5972 12.0143 37.3227 12.3525 37.0401C20.5796 40.8521 29.5185 40.8521 37.6474 37.0401C37.9895 37.3227 38.3395 37.5972 38.6934 37.8599C37.3406 38.6676 35.9091 39.3599 34.4187 39.921C35.2013 41.4728 36.1058 42.953 37.1282 44.3416C41.2576 43.0683 45.4576 41.1226 49.7875 37.9155C50.8257 27.0251 48.0139 17.5829 42.3548 9.2111ZM16.6941 32.1381C14.2244 32.1381 12.1991 29.8541 12.1991 27.0728C12.1991 24.2915 14.1812 22.0036 16.6941 22.0036C19.2071 22.0036 21.2324 24.2875 21.1892 27.0728C21.1931 29.8541 19.2071 32.1381 16.6941 32.1381ZM33.3057 32.1381C30.836 32.1381 28.8107 29.8541 28.8107 27.0728C28.8107 24.2915 30.7927 22.0036 33.3057 22.0036C35.8187 22.0036 37.844 24.2875 37.8008 27.0728C37.8008 29.8541 35.8187 32.1381 33.3057 32.1381Z" fill="#5865F2"/>
</svg>
