<svg width="256" height="256" viewBox="0 0 256 256" fill="none" xmlns="http://www.w3.org/2000/svg">
<path d="M151.907 0.0874144L231.23 0L98.1467 133.015L63.4627 167.505L24 127.994L151.907 0.0874144ZM151.168 118.854C152.198 117.495 154.092 118.165 155.529 117.99L231.162 118.009L162.231 186.872L122.564 147.448L151.168 118.854Z" fill="#44D1FD"/>
<path d="M83.024 186.94L122.564 147.448L162.231 186.872L162.396 187.047L122.574 226.5L83.024 186.94V186.94Z" fill="#1FBCFD"/>
<path d="M122.574 226.5L162.396 187.047L231.191 255.91C205.278 255.968 179.374 255.891 153.47 255.949C151.994 256.279 151.081 254.929 150.139 254.094L122.574 226.5V226.5Z" fill="#08589C"/>
</svg>
