<svg width="256" height="256" viewBox="0 0 256 256" fill="none" xmlns="http://www.w3.org/2000/svg">
<path d="M251.173 116.598L139.395 4.82818C132.963 -1.60939 122.523 -1.60939 116.084 4.82818L92.8742 28.041L122.315 57.4828C129.159 55.1719 137.004 56.7213 142.457 62.1757C147.938 67.6641 149.477 75.5762 147.108 82.4437L175.484 110.82C182.348 108.455 190.269 109.983 195.751 115.475C203.414 123.136 203.414 135.552 195.751 143.215C188.086 150.882 175.671 150.882 168.002 143.215C162.24 137.448 160.814 128.981 163.733 121.881L137.27 95.4163L137.267 165.057C139.136 165.982 140.899 167.217 142.456 168.767C150.117 176.428 150.117 188.841 142.456 196.514C134.792 204.175 122.372 204.175 114.716 196.514C107.054 188.841 107.054 176.428 114.716 168.767C116.61 166.876 118.801 165.446 121.139 164.486V94.1986C118.8 93.2436 116.611 91.8234 114.715 89.9178C108.911 84.118 107.513 75.5992 110.49 68.4715L81.4669 39.4431L4.8295 116.081C-1.60983 122.524 -1.60983 132.964 4.8295 139.402L116.602 251.172C123.037 257.609 133.473 257.609 139.917 251.172L251.172 139.93C257.609 133.489 257.609 123.046 251.172 116.607" fill="#F05133"/>
</svg>
